<?xml version="1.0" encoding="UTF-8" standalone="no"?>
<!-- Created with Inkscape (http://www.inkscape.org/) -->

<svg
   xmlns:dc="http://purl.org/dc/elements/1.1/"
   xmlns:cc="http://creativecommons.org/ns#"
   xmlns:rdf="http://www.w3.org/1999/02/22-rdf-syntax-ns#"
   xmlns:svg="http://www.w3.org/2000/svg"
   xmlns="http://www.w3.org/2000/svg"
   version="1.1"
   width="104.8121"
   height="26.522451"
   id="svg2">
  <defs
     id="defs4" />
  <metadata
     id="metadata7">
    <rdf:RDF>
      <cc:Work
         rdf:about="">
        <dc:format>image/svg+xml</dc:format>
        <dc:type
           rdf:resource="http://purl.org/dc/dcmitype/StillImage" />
        <dc:title></dc:title>
      </cc:Work>
    </rdf:RDF>
  </metadata>
  <g
     transform="translate(-103.33368,-88.498655)"
     id="layer1">
    <g
       id="text4244"
       style="font-size:40px;font-style:normal;font-variant:normal;font-weight:normal;font-stretch:normal;line-height:0%;letter-spacing:0px;word-spacing:0px;writing-mode:lr-tb;fill:#000000;fill-opacity:1;stroke:none;font-family:HaloHandletter;-inkscape-font-specification:HaloHandletter">
      <path
         d="m 119.65714,102.57932 c 0.04,2.36 0.4,9.92 -1.12,10.76 -1.44,0.76 -4.48,-0.24 -7.32,-2.16 -2.88,-1.92 -5.04,-4.92 -4.96,-5.8 0.24,-2.32 10.56,-2.72 13.4,-2.8 m -14.64,-11.439998 c -0.04,0.16 -1,7.440003 -1.32,10.239998 -0.64,5.24 -0.24,11.88 -0.24,11.88 0,0 -0.12,0.6 0.64,0.96 0.52,0.24 1.08,0.32 1.08,-0.12 -0.04,-0.4 -0.4,-1 -0.36,-2.2 0.04,-0.68 0.12,-2.96 0.28,-5.48 0.68,1.8 2.44,4.16 5.24,5.92 3.68,2.36 5.96,2.48 7.36,2.44 1.44,-0.08 3.28,-1.84 3.52,-5.96 0.2,-2.95999 0.16,-5.16 0.16,-6.24 1.32,-0.04 0.8,0 2.92,-0.08 0.36,0 0.6,0.08 0.64,-0.52 0.04,-0.64 -0.48,-0.6 -0.92,-0.6 -1.4,-0.08 -1.88,-0.08 -2.6,-0.12 0.08,-1.639996 0.36,-6.2 0.72,-8.159998 0.48,-2.399997 0.84,-3.4 0.84,-3.4 0,0 0.52,-0.76 -0.28,-1.08 -0.84,-0.519999 -1.56,0.720002 -1.92,2.2 -0.28,1.119999 -1,7.360003 -1.12,10.479998 -3.72,0.08 -12.24,0.84 -14.44,2.6 0.08,-1.08 0.16,-2.12 0.24,-3.04 0.4,-3.839994 1.4,-9.599998 1.56,-9.999998 0.12,-0.319999 0.4,-0.76 -0.04,-1.08 -1.8,-1.399998 -1.92,0.920001 -1.96,1.36"
         id="path4251" />
      <path
         d="m 126.96901,108.33932 c -0.36,0.96 -0.48,1.68 -1.8,3.16 -0.51999,-2.28 1.12001,-6.12 1.92,-6 0.72,0.16 0.36,1.6 -0.12,2.84 m 0.44,4.72 c -0.67999,0 -1.32,-0.24 -1.68,-0.56 0.56,-0.68 1.68001,-2.04 2.32,-3.68 0.56,-1.44 1.48,-3.36 -0.16,-4.44 -2.19999,-1.36 -4.12,2.92 -4.2,5.04 -0.08,2.12 0.36001,5 4,5.08 3.04,0.04 5.12,-4.2 5.4,-4.76 0.84,-1.6 0.32,-2.52 -0.04,-1.88 -0.99999,1.68 -2.76,5.2 -5.64,5.2"
         id="path4253" />
      <path
         d="m 135.51589,100.33932 c -1.44,5.68 -2.08,7.24001 -4.16,10.24 -0.52,-1.44 -0.76,-4.2 -0.64,-5.84 0.52,-5.399992 2.68,-10.319998 4.2,-10.199998 1.52,0.08 0.88,4.760001 0.6,5.799998 m -0.76,13 c -1.16,0 -2.16,-0.68 -2.88,-1.8 1.28,-1.48 4.4,-6.72 5.16,-12.039998 0.6,-3.919996 -0.12,-6.32 -2.08,-6.44 -3.08,-0.2 -5.4,7.720008 -5.44,11.599998 -0.04,4.4 0.08,9.64 4.8,9.88 3.88,0.2 6,-4.2 6.28,-4.76 0.84,-1.56 0.32,-2.48 -0.08,-1.84 -0.92,1.68 -2.84,5.4 -5.76,5.4"
         id="path4255" />
      <path
         d="m 143.01589,100.33932 c -1.44,5.68 -2.08,7.24001 -4.16,10.24 -0.52,-1.44 -0.76,-4.2 -0.64,-5.84 0.52,-5.399992 2.68,-10.319998 4.2,-10.199998 1.52,0.08 0.88,4.760001 0.6,5.799998 m -0.76,13 c -1.16,0 -2.16,-0.68 -2.88,-1.8 1.28,-1.48 4.4,-6.72 5.16,-12.039998 0.6,-3.919996 -0.12,-6.32 -2.08,-6.44 -3.08,-0.2 -5.4,7.720008 -5.44,11.599998 -0.04,4.4 0.08,9.64 4.8,9.88 3.88,0.2 6,-4.2 6.28,-4.76 0.84,-1.56 0.32,-2.48 -0.08,-1.84 -0.92,1.68 -2.84,5.4 -5.76,5.4"
         id="path4257" />
      <path
         d="m 148.11589,111.01932 c 0.04,-0.8 0.72,-2.56 1.16,-2.88 0.44,1.2 1.28,2.2 2.4,2.84 -0.36,1.24 -1.24,2.64 -2.24,2.56 -1.32,-0.08 -1.36,-1.64 -1.32,-2.52 m 3.8,-1.52 c -0.76,-0.48 -1.32,-1.12 -1.52,-1.8 -0.24,-0.68 -0.16,-1.64 0.52,-1.68 0.96,-0.08 1.04,2.04 1,3.48 m 5.12,-0.88 c -0.92,1.8 -2.56,1.96 -3.88,1.44 0.04,-0.24 0.08,-0.48 0.08,-0.72 0.28,-3.47999 -1.4,-4.76 -2.44,-4.68 -1.08,0.08 -1.64,0.72 -1.8,1.52 -1.32,0.2 -2.12,3.28 -2.24,4.72 -0.12,1.44 0.4,3.68 2.32,3.8 2,0.12 3.2,-1.52 3.76,-3.32 3,0.68 4.64,-1.12 5.08,-2.44 0.28,-1 -0.2,-1.52 -0.48,-1 l -0.4,0.68"
         id="path4259" />
      <path
         d="m 170.87401,109.81932 c 0.8,-1.6 0.24,-2.48 -0.12,-1.84 -0.91999,1.68 -2.44,4.84 -4.92,4.64 -1.63999,-0.12 -1.88,-3.24 -1.8,-4.36 0.08,-1.12 0.84,-4.68 0.96,-5.44 0.12,-0.92 0.24,-1.72 0.32,-2.4 l 6.16,0 c 0,0 1.28,0 1.32,-0.679998 0,-0.639999 -0.96,-0.48 -0.96,-0.48 l -6.32,0.04 c 0.08,-0.799999 0.12,-1.2 0.12,-1.2 0.04,-0.359999 -0.2,-1.2 -0.56,-1.32 -0.63999,-0.2 -0.72,0.160001 -0.88,0.84 0,0.04 -0.16,0.680001 -0.32,1.64 l -6.12,0.04 c -0.24,0 -1.4,-0.319999 -1.44,0.52 0,0.559998 1.16,0.599998 1.16,0.599998 l 6.2,0 c -0.43999,2.64 -1.04,6.32 -1.08,7.56 -0.08,2 0.16001,5.76 3.12,5.88 3.2,0.16 4.88,-3.48 5.16,-4.04"
         id="path4261" />
      <path
         d="m 182.72839,109.73932 c 0.8,-1.6 0.24,-2.52 -0.12,-1.88 -0.92,1.68 -2.88,5.52 -5.2,5.56 -1.84,0 -1.72,-2.72 -1.64,-3.76 0.12,-1.44 1.28,-3.12 -0.92,-3.12 -1.64,0 -3.56,5.44 -3.56,5.44 l 0.28,-4 c 0,0 3.8,-9.760001 4.28,-12.719998 0.36,-2.159998 -1.4,-2.68 -1.84,-2.68 -1.52,-0.04 -2.72,2.920005 -3.2,7.719998 -0.48,4.76 -0.52,7.24 -0.52,7.24 0,0.04 -0.96,4.44 -0.52,6.24 0.2,0.92 1.72,1.48 1.72,0.24 0,-0.32 2.36,-5.76 2.96,-5.68 0.44,0.08 -1.76,6.6 2.84,6.52 3,-0.08 5.16,-4.56 5.44,-5.12 m -8.64,-15.679998 c 1.48,0.24 -2.2,9.479998 -2.2,9.479998 0,0 0.8,-9.719998 2.2,-9.479998"
         id="path4263" />
      <path
         d="m 182.28151,108.33932 c -0.36,0.96 -0.48,1.68 -1.8,3.16 -0.51999,-2.28 1.12001,-6.12 1.92,-6 0.72,0.16 0.36,1.6 -0.12,2.84 m 0.44,4.72 c -0.67999,0 -1.32,-0.24 -1.68,-0.56 0.56,-0.68 1.68001,-2.04 2.32,-3.68 0.56,-1.44 1.48,-3.36 -0.16,-4.44 -2.19999,-1.36 -4.12,2.92 -4.2,5.04 -0.08,2.12 0.36001,5 4,5.08 3.04,0.04 5.12,-4.2 5.4,-4.76 0.84,-1.6 0.32,-2.52 -0.04,-1.88 -0.99999,1.68 -2.76,5.2 -5.64,5.2"
         id="path4265" />
      <path
         d="m 190.58839,107.73932 c 0.52,0 0.52,-0.64 0.96,-0.28 0.24,0.24 -0.44,0.92 -0.32,2.76 0,0.76 0.16,3.84 3.16,4 2.76,0.16 4.72,-3.84 5.04,-4.4 0.8,-1.6 0.2,-2.48 -0.12,-1.84 -0.96,1.68 -2.76,4.92 -4.68,4.92 -1.6,0 -1.8,-1.4 -1.76,-3.12 0,-1.72 0.52,-1.68 0.6,-2.6 0,-0.12 0.2,-1.12 -0.36,-1.44 -0.92,-0.52 -1.76,0.12 -2,0.24 -0.12,0.04 -0.4,0.16 -0.56,-0.04 -0.2,-0.2 0.2,-0.6 0.2,-0.96 0.04,-0.28 -0.28,-1.24 -0.88,-1.28 -0.72,-0.08 -1.12,1.36 -1.12,2.64 0,0.8 0.08,0.72 -0.08,0.96 -0.4,0.64 -0.52,0.96 -0.76,1.4 -0.36,0.72 0.24,1.48 0.48,1.12 0.56,-0.96 0.92,-1.52 1.12,-1.96 0.16,-0.36 0.56,-0.12 1.08,-0.12"
         id="path4267" />
      <path
         d="m 198.84401,108.33932 c -0.36,0.96 -0.48,1.68 -1.8,3.16 -0.51999,-2.28 1.12001,-6.12 1.92,-6 0.72,0.16 0.36,1.6 -0.12,2.84 m 0.44,4.72 c -0.67999,0 -1.32,-0.24 -1.68,-0.56 0.56,-0.68 1.68001,-2.04 2.32,-3.68 0.56,-1.44 1.48,-3.36 -0.16,-4.44 -2.19999,-1.36 -4.12,2.92 -4.2,5.04 -0.08,2.12 0.36001,5 4,5.08 3.04,0.04 5.12,-4.2 5.4,-4.76 0.84,-1.6 0.32,-2.52 -0.04,-1.88 -0.99999,1.68 -2.76,5.2 -5.64,5.2"
         id="path4269" />
      <path
         d="m 205.55089,112.73932 c -0.72,-0.04 -1.12,0.76 -1.16,1.24 -0.04,0.84 0.44,1 1.12,1.04 0.68,0.04 1.12,-0.6 1.16,-1.04 0,-0.44 -0.4,-1.16 -1.16,-1.2 l 0.04,-0.04 m 0.64,-3.68 c 0,-3.43999 0.36,-5.36 0.76,-8.76 0.36,-3.079995 1.04,-6.879999 1.16,-7.839998 0.12,-0.959999 -0.08,-1.84 -0.44,-1.92 -0.4,-0.04 -1.12,0.240002 -1.36,2 -0.08,0.52 -0.84,5.200003 -1,8.239998 -0.2,3.6 -0.24,4.92001 -0.48,8.48 -0.04,0.56 0.2,0.96 0.72,1.08 0.8,0.16 0.64,-0.88 0.64,-1.24 l 0,-0.04"
         id="path4271" />
    </g>
  </g>
</svg>
