<?xml version="1.0" encoding="UTF-8" standalone="no"?>
<!-- Created with Inkscape (http://www.inkscape.org/) -->

<svg
   xmlns:dc="http://purl.org/dc/elements/1.1/"
   xmlns:cc="http://creativecommons.org/ns#"
   xmlns:rdf="http://www.w3.org/1999/02/22-rdf-syntax-ns#"
   xmlns:svg="http://www.w3.org/2000/svg"
   xmlns="http://www.w3.org/2000/svg"
   xmlns:sodipodi="http://sodipodi.sourceforge.net/DTD/sodipodi-0.dtd"
   xmlns:inkscape="http://www.inkscape.org/namespaces/inkscape"
   width="1002.6194"
   height="87.139496"
   id="svg2"
   version="1.1"
   inkscape:version="0.48.4 r9939"
   sodipodi:docname="logo-inline.svg"
   inkscape:export-filename="/home/dave/pictures/PSP/logo/banner.png"
   inkscape:export-xdpi="400.04803"
   inkscape:export-ydpi="400.04803">
  <defs
     id="defs4">
    <inkscape:path-effect
       effect="spiro"
       id="path-effect4158"
       is_visible="true" />
    <inkscape:path-effect
       effect="spiro"
       id="path-effect4069"
       is_visible="true" />
    <inkscape:path-effect
       effect="spiro"
       id="path-effect3995"
       is_visible="true" />
    <inkscape:path-effect
       effect="spiro"
       id="path-effect3223"
       is_visible="true" />
  </defs>
  <sodipodi:namedview
     id="base"
     pagecolor="#ffffff"
     bordercolor="#666666"
     borderopacity="1.0"
     inkscape:pageopacity="0.0"
     inkscape:pageshadow="2"
     inkscape:zoom="0.9899495"
     inkscape:cx="519.41326"
     inkscape:cy="185.97315"
     inkscape:document-units="px"
     inkscape:current-layer="layer1"
     showgrid="false"
     inkscape:snap-global="false"
     showguides="true"
     inkscape:guide-bbox="true"
     inkscape:window-width="1920"
     inkscape:window-height="1056"
     inkscape:window-x="0"
     inkscape:window-y="24"
     inkscape:window-maximized="1"
     fit-margin-top="0"
     fit-margin-left="0"
     fit-margin-right="0"
     fit-margin-bottom="0">
    <inkscape:grid
       type="xygrid"
       id="grid2991"
       empspacing="5"
       visible="true"
       enabled="true"
       snapvisiblegridlinesonly="true"
       originx="339.47196px"
       originy="-501.69738px" />
    <sodipodi:guide
       orientation="0,1"
       position="283.04338,-133.12595"
       id="guide3094" />
    <sodipodi:guide
       orientation="0,1"
       position="423.72089,17.592741"
       id="guide4055" />
    <sodipodi:guide
       orientation="0,1"
       position="456.42457,69.615596"
       id="guide4057" />
    <sodipodi:guide
       orientation="0,1"
       position="396.0405,184.1962"
       id="guide4075" />
  </sodipodi:namedview>
  <metadata
     id="metadata7">
    <rdf:RDF>
      <cc:Work
         rdf:about="">
        <dc:format>image/svg+xml</dc:format>
        <dc:type
           rdf:resource="http://purl.org/dc/dcmitype/StillImage" />
        <dc:title></dc:title>
      </cc:Work>
    </rdf:RDF>
  </metadata>
  <g
     inkscape:label="Layer 1"
     inkscape:groupmode="layer"
     id="layer1"
     transform="translate(339.47196,-463.52527)">
    <g
       id="g3051"
       transform="matrix(0.21034207,0,0,0.21034207,109.94211,386.21656)">
      <path
         transform="matrix(0.20225216,0,0,0.20225216,217.2141,534.56451)"
         style="fill:#88aa00;fill-opacity:0;stroke:#000000;stroke-width:5;stroke-linecap:round;stroke-linejoin:miter;stroke-miterlimit:4;stroke-dashoffset:0;stroke-opacity:1"
         inkscape:transform-center-x="6.3704254"
         inkscape:transform-center-y="-4.3750099"
         d="M 560,563.79077 163.53512,190.8582 462.24282,645.87118 162.46887,191.55997 348.19165,703.19475 161.26952,191.99692 223.99502,732.67114 160.00173,192.14551 96.348401,732.71128 158.73385,191.99772 -27.866744,703.313 157.53422,191.56152 -141.95394,646.06118 156.46753,190.86043 -239.76273,564.04226 155.59128,189.93223 -316.0202,461.67792 154.95269,188.82698 -366.6153,344.48664 154.58622,187.60426 -388.82043,218.78623 154.51159,186.32997 -381.43851,91.353231 154.73286,185.07283 -344.86751,-30.942403 155.23807,183.9006 -281.07896,-141.50769 156,182.87647 -193.51173,-234.38202 156.97757,182.05567 -86.886594,-304.55852 158.11808,181.48243 33.048263,-348.25395 159.36005,181.18767 l 0.46707,-544.30036 0.8094,544.29996 L 286.6153,-348.33369 161.87867,181.48125 406.57761,-304.71369 163.01954,182.05377 513.24686,-234.60427 163.99763,182.87396 600.87249,-141.78503 164.7602,183.8976 664.73056,-31.259884 165.26615,185.06952 701.37847,91.012726 165.4882,186.32652 708.84054,218.44105 165.41439,187.60085 686.71446,344.1554 165.04868,188.82381 636.19308,461.37848 164.41079,189.92946 z"
         id="path2987" />
      <path
         transform="matrix(1.1186053,0,0,1.1186053,-182.42029,84.95106)"
         style="fill:#000000;fill-opacity:0;stroke:#000000;stroke-width:5;stroke-linecap:round;stroke-linejoin:miter;stroke-miterlimit:4;stroke-dashoffset:0;stroke-opacity:1"
         d="m 487.96313,435.66406 c 0,56.24045 -45.59189,101.83234 -101.83233,101.83234 -56.24045,0 -101.83234,-45.59189 -101.83234,-101.83234 0,-56.24044 45.59189,-101.83233 101.83234,-101.83233 56.24044,0 101.83233,45.59189 101.83233,101.83233 z"
         id="path3003" />
    </g>
    <path
       style="fill:none;stroke:#000000;stroke-width:0.66559231;stroke-linecap:butt;stroke-linejoin:miter;stroke-miterlimit:4;stroke-opacity:1;stroke-dasharray:none"
       d="m 162.43808,506.99615 c 0,-38.16516 0,-38.10844 0,-38.10844"
       id="path3015"
       inkscape:connector-curvature="0" />
    <path
       style="fill:none;stroke:#000000;stroke-width:0.56993419;stroke-linecap:butt;stroke-linejoin:miter;stroke-miterlimit:4;stroke-opacity:1;stroke-dasharray:none"
       d="m 162.44047,478.71775 c -6.12639,2.9985 -9.13118,1.23946 -13.66745,4.13871 -4.53626,2.89925 -9.71482,7.96963 -12.28156,12.56578 -2.56674,4.59616 -1.91669,8.1108 -2.90074,13.09273 -0.98406,4.98193 -3.8138,10.45258 -8.53452,13.10311"
       id="path3049"
       inkscape:connector-curvature="0"
       sodipodi:nodetypes="csssc" />
    <path
       d="m 146.90184,479.50571 c -0.28012,0.0272 -0.52548,0.0416 -0.72268,0.0416 -1.31763,0 -5.79709,-2.01585 -4.93885,-3.09819 0.36976,-0.46646 2.53106,-0.0211 5.23577,0.26046 0.60278,0.0628 2.45708,0.0578 3.53158,0 2.50191,-0.1344 4.69907,-0.42316 5.11474,0.14382 0.49971,0.68472 -2.92879,1.70597 -5.80494,2.27407"
       id="path3207"
       inkscape:connector-curvature="0" />
    <path
       style="fill:none;stroke:#000000;stroke-width:0.33279616;stroke-linecap:butt;stroke-linejoin:miter;stroke-miterlimit:4;stroke-opacity:1"
       d="m 145.10116,478.45928 c -0.37473,-0.0461 -0.76785,0.0952 -1.02753,0.36929 -0.25967,0.27407 -0.37957,0.67424 -0.31338,1.04594 0.0371,0.20843 0.12951,0.40588 0.26006,0.57256 0.13054,0.16667 0.29865,0.30278 0.48546,0.4024 0.37362,0.19924 0.81475,0.24943 1.23473,0.19553 0.83996,-0.10781 1.57127,-0.59991 2.31389,-1.00694 0.37132,-0.20351 0.75589,-0.38955 1.16535,-0.4974 0.40946,-0.10786 0.84747,-0.13457 1.25518,-0.0203 0.4077,0.11432 0.78177,0.3798 0.97706,0.7555 0.0977,0.18785 0.14927,0.40042 0.14137,0.61198 -0.008,0.21157 -0.0762,0.42154 -0.20022,0.59313 -0.11528,0.1595 -0.27788,0.28435 -0.46174,0.35452"
       id="path3221" />
    <path
       style="fill:none;stroke:#000000;stroke-width:1.10932064;stroke-linecap:butt;stroke-linejoin:miter;stroke-miterlimit:4;stroke-opacity:1"
       d="m 164.63722,467.5403 c -1.77223,1.02321 -3.54447,2.04641 -5.3167,3.06961"
       id="path4020"
       inkscape:connector-curvature="0" />
    <path
       style="fill:#000000;fill-opacity:1;stroke:#000000;stroke-width:0.83901304;stroke-linecap:round;stroke-linejoin:miter;stroke-miterlimit:4;stroke-opacity:1;stroke-dashoffset:0"
       d="m 165.25823,467.56832 c -0.35357,0.56231 -2.66833,1.48731 -2.59011,1.18116 -0.43354,-0.21084 1.01953,-1.15086 1.84665,-1.63555 0.82714,-0.48468 1.09703,-0.1079 0.74346,0.45439 z"
       id="path4022"
       inkscape:connector-curvature="0"
       sodipodi:nodetypes="zczz" />
    <path
       style="fill:#000000;fill-opacity:1;stroke:#000000;stroke-width:0.83901304;stroke-linecap:round;stroke-linejoin:miter;stroke-miterlimit:4;stroke-opacity:1;stroke-dashoffset:0"
       d="m 161.91921,469.27688 c 0.0222,0.32763 -2.11376,1.98687 -2.53069,1.73581 -0.43353,-0.21083 -0.46636,-0.88878 -0.055,-1.14032 0.42324,-0.30414 2.64072,-0.88282 2.58572,-0.59549 z"
       id="path4018"
       inkscape:connector-curvature="0"
       sodipodi:nodetypes="cccc" />
    <path
       transform="matrix(0.73145048,0,0,0.73145048,-539.43223,213.04612)"
       style="font-size:94.50642395px;font-style:normal;font-weight:normal;line-height:0%;letter-spacing:0px;word-spacing:0px;writing-mode:lr-tb;fill:#67cc00;fill-opacity:1;stroke:none;font-family:Sans"
       d="m 453.25,367.03125 c -11.04424,7e-5 -19.72469,3.16272 -26.03125,9.5 -6.27583,6.3374 -9.40625,15.08278 -9.40625,26.25 0,11.13652 3.13042,19.88142 9.40625,26.21875 6.30656,6.33735 14.98701,9.5 26.03125,9.5 11.07492,0 19.75537,-3.16265 26.03125,-9.5 6.27574,-6.33733 9.40617,-15.08223 9.40625,-26.21875 -8e-5,-11.16722 -3.13051,-19.9126 -9.40625,-26.25 -6.27588,-6.33728 -14.95633,-9.49993 -26.03125,-9.5 z m -179.875,1.21875 0,68.90625 17.78125,0 0,-23.90625 11.71875,0 c 8.76764,2e-5 15.4801,-1.93623 20.15625,-5.8125 4.7068,-3.90697 7.06243,-9.45797 7.0625,-16.6875 -7e-5,-7.19868 -2.3557,-12.7487 -7.0625,-16.625 -4.67615,-3.90694 -11.38861,-5.87493 -20.15625,-5.875 l -29.5,0 z m 69.21875,0 0,68.90625 17.78125,0 0,-29.21875 26.1875,0 0,29.21875 17.78125,0 0,-68.90625 -17.78125,0 0,26.28125 -26.1875,0 0,-26.28125 -17.78125,0 z m 159.5,0 0,68.90625 48.9375,0 0,-13.4375 -31.1875,0 0,-15.78125 28.375,0 0,-13.40625 -28.375,0 0,-12.84375 30.1875,0 0,-13.4375 -47.9375,0 z m 64.59375,0 0,68.90625 16.84375,0 0,-47.25 25.0625,47.25 19.84375,0 0,-68.90625 -16.84375,0 0,47.28125 -25.0625,-47.28125 -19.84375,0 z m 79.1875,0 0,68.90625 17.75,0 0,-68.90625 -17.75,0 z m 29.3125,0 22.96875,33.75 -23.90625,35.15625 18.59375,0 15.96875,-23.53125 16.09375,23.53125 18.5,0 L 719.53125,402 742.5,368.25 l -18.65625,0 -15.03125,22.21875 -15.09375,-22.21875 -18.53125,0 z M 453.25,379.90625 c 5.44515,6e-5 9.67211,1.96951 12.65625,5.96875 2.98403,3.99934 4.46869,9.64603 4.46875,16.90625 -6e-5,7.22952 -1.48472,12.84448 -4.46875,16.84375 -2.98414,3.99931 -7.2111,6.00001 -12.65625,6 -5.41447,10e-6 -9.60969,-2.00069 -12.59375,-6 -2.98411,-3.99927 -4.46877,-9.61423 -4.46875,-16.84375 -2e-5,-7.26022 1.48464,-12.90691 4.46875,-16.90625 2.98406,-3.99924 7.17928,-5.96869 12.59375,-5.96875 z m -162.09375,1.21875 9.8125,0 c 3.44551,6e-5 6.12337,0.83881 8,2.5 1.87655,1.6613 2.81245,4.04867 2.8125,7.125 -5e-5,3.07642 -0.93595,5.43303 -2.8125,7.125 -1.87663,1.66128 -4.55449,2.50004 -8,2.5 l -9.8125,0 0,-19.25 z"
       id="path4077" />
    <g
       style="font-size:40px;font-style:normal;font-weight:normal;line-height:0%;letter-spacing:0px;word-spacing:0px;writing-mode:tb-rl;fill:#000000;fill-opacity:1;stroke:none;font-family:Sans"
       id="text4059" />
    <g
       style="font-size:56.27576065px;font-style:normal;font-weight:normal;line-height:0%;letter-spacing:0px;word-spacing:0px;writing-mode:tb-rl;fill:#000000;fill-opacity:1;stroke:none;font-family:Sans"
       id="text4071">
      <path
         d="m 190.91469,463.52527 8.13361,0 0,40.40423 24.13702,-21.2353 10.33188,0 -26.11547,23.03789 27.21461,26.2034 -10.55171,0 -25.01633,-24.0491 0,24.0491 -8.13361,0 0,-68.41022"
         style="font-size:90.04121399px;writing-mode:lr-tb"
         id="path5426" />
      <path
         d="m 282.40676,505.29243 0,3.95689 -37.19475,0 c 0.35171,5.56897 2.02239,9.81896 5.01206,12.74998 3.01893,2.90172 7.2103,4.35258 12.57411,4.35258 3.10686,0 6.11116,-0.38103 9.01291,-1.14311 2.93099,-0.76206 5.83271,-1.90516 8.70516,-3.4293 l 0,7.64999 c -2.90176,1.23103 -5.87676,2.16896 -8.92498,2.81378 -3.04831,0.64483 -6.14054,0.96724 -9.27671,0.96724 -7.85518,0 -14.08361,-2.2862 -18.68531,-6.8586 -4.57241,-4.5724 -6.85861,-10.75687 -6.85861,-18.55342 0,-8.0603 2.16896,-14.44993 6.50689,-19.16893 4.36721,-4.74822 10.24392,-7.12235 17.63014,-7.1224 6.62409,5e-5 11.85597,2.1397 15.69566,6.41895 3.86891,4.25004 5.80338,10.03881 5.80343,17.36635 m -8.08964,-2.37413 c -0.0587,-4.42582 -1.30434,-7.95771 -3.73706,-10.59567 -2.40348,-2.63789 -5.5983,-3.95685 -9.58446,-3.95689 -4.51381,4e-5 -8.13363,1.27504 -10.85947,3.82499 -2.69656,2.55003 -4.25,6.14054 -4.66033,10.77153 l 28.84132,-0.044"
         style="font-size:90.04121399px;writing-mode:lr-tb"
         id="path5428" />
      <path
         d="m 327.07565,484.14506 0,7.64998 c -2.28624,-1.17237 -4.66037,-2.05168 -7.1224,-2.63792 -2.4621,-0.58617 -5.01209,-0.87927 -7.64999,-0.87931 -4.01553,4e-5 -7.03449,0.61556 -9.05688,1.84655 -1.99311,1.23107 -2.98966,3.07762 -2.98965,5.53964 -1e-5,1.87589 0.71809,3.35606 2.15431,4.44051 1.43619,1.0552 4.32325,2.06641 8.66119,3.03361 l 2.76982,0.61552 c 5.74479,1.23106 9.81891,2.97502 12.22239,5.23189 2.43272,2.2276 3.64909,5.34914 3.64913,9.36464 -4e-5,4.57241 -1.81727,8.19223 -5.45171,10.85946 -3.6052,2.66724 -8.57329,4.00085 -14.90428,4.00085 -2.63795,0 -5.39311,-0.26379 -8.2655,-0.79137 -2.84311,-0.49828 -5.84742,-1.26035 -9.01292,-2.28621 l 0,-8.35343 c 2.98964,1.55345 5.93532,2.72586 8.83705,3.51723 2.90171,0.76208 5.77411,1.14311 8.61723,1.14311 3.81031,0 6.74134,-0.64482 8.79309,-1.93448 2.05168,-1.31896 3.07754,-3.1655 3.07758,-5.53965 -4e-5,-2.19825 -0.74745,-3.88359 -2.24224,-5.05602 -1.46555,-1.1724 -4.70433,-2.30084 -9.71636,-3.38534 l -2.81379,-0.65948 c -5.01207,-1.05515 -8.63189,-2.66722 -10.85946,-4.8362 -2.22759,-2.19824 -3.34138,-5.20255 -3.34138,-9.01292 0,-4.63098 1.64137,-8.20683 4.92413,-10.72756 3.28274,-2.52064 7.94307,-3.78098 13.98101,-3.78103 2.98962,5e-5 5.80341,0.21988 8.44137,0.65948 2.63789,0.43971 5.07064,1.09919 7.29826,1.97845"
         style="font-size:90.04121399px;writing-mode:lr-tb"
         id="path5430" />
      <path
         d="m 379.13073,524.54929 0,26.11547 -8.13361,0 0,-67.97056 8.13361,0 0,7.47412 c 1.69998,-2.93098 3.83962,-5.09994 6.41895,-6.50688 2.60859,-1.43616 5.71548,-2.15426 9.32067,-2.15431 5.97926,5e-5 10.83011,2.37418 14.55256,7.1224 3.75167,4.74831 5.62753,10.99139 5.62758,18.72928 -5e-5,7.73793 -1.87591,13.98102 -5.62758,18.72927 -3.72245,4.74827 -8.5733,7.1224 -14.55256,7.1224 -3.60519,0 -6.71208,-0.70344 -9.32067,-2.11034 -2.57933,-1.4362 -4.71897,-3.61981 -6.41895,-6.55085 m 27.52236,-17.19048 c -4e-5,-5.94996 -1.23108,-10.61029 -3.6931,-13.98101 -2.43279,-3.39995 -5.78881,-5.09995 -10.06808,-5.09999 -4.27933,4e-5 -7.65001,1.70004 -10.11205,5.09999 -2.43277,3.37072 -3.64915,8.03105 -3.64913,13.98101 -2e-5,5.95 1.21636,10.62499 3.64913,14.02497 2.46204,3.37069 5.83272,5.05603 10.11205,5.05603 4.27927,0 7.63529,-1.68534 10.06808,-5.05603 2.46202,-3.39998 3.69306,-8.07497 3.6931,-14.02497"
         style="font-size:90.04121399px;writing-mode:lr-tb"
         id="path5432" />
      <path
         d="m 470.57883,505.29243 0,3.95689 -37.19476,0 c 0.35171,5.56897 2.02239,9.81896 5.01206,12.74998 3.01894,2.90172 7.2103,4.35258 12.57411,4.35258 3.10686,0 6.11116,-0.38103 9.01292,-1.14311 2.93098,-0.76206 5.8327,-1.90516 8.70515,-3.4293 l 0,7.64999 c -2.90176,1.23103 -5.87675,2.16896 -8.92498,2.81378 -3.04831,0.64483 -6.14054,0.96724 -9.27671,0.96724 -7.85518,0 -14.08361,-2.2862 -18.68531,-6.8586 -4.57241,-4.5724 -6.85861,-10.75687 -6.85861,-18.55342 0,-8.0603 2.16896,-14.44993 6.50689,-19.16893 4.36722,-4.74822 10.24392,-7.12235 17.63014,-7.1224 6.62409,5e-5 11.85597,2.1397 15.69566,6.41895 3.86891,4.25004 5.80339,10.03881 5.80344,17.36635 m -8.08964,-2.37413 c -0.0587,-4.42582 -1.30435,-7.95771 -3.73707,-10.59567 -2.40348,-2.63789 -5.59829,-3.95685 -9.58446,-3.95689 -4.51381,4e-5 -8.13363,1.27504 -10.85946,3.82499 -2.69657,2.55003 -4.25001,6.14054 -4.66034,10.77153 l 28.84133,-0.044"
         style="font-size:90.04121399px;writing-mode:lr-tb"
         id="path5434" />
      <path
         d="m 502.93739,488.36574 c -4.33794,4e-5 -7.76724,1.70004 -10.28791,5.09999 -2.5207,3.37072 -3.78104,8.00174 -3.78103,13.89308 -10e-6,5.89138 1.24567,10.53706 3.73706,13.93704 2.52067,3.37069 5.96463,5.05603 10.33188,5.05603 4.30858,0 7.72323,-1.69999 10.24395,-5.1 2.52064,-3.39997 3.78098,-8.031 3.78103,-13.89307 -5e-5,-5.83272 -1.26039,-10.44909 -3.78103,-13.84912 -2.52072,-3.42926 -5.93537,-5.14391 -10.24395,-5.14395 m 0,-6.85861 c 7.03444,5e-5 12.55942,2.28625 16.57497,6.85861 4.01546,4.57244 6.02322,10.90346 6.02327,18.99307 -5e-5,8.06034 -2.00781,14.39136 -6.02327,18.99307 -4.01555,4.5724 -9.54053,6.8586 -16.57497,6.8586 -7.0638,0 -12.60344,-2.2862 -16.61893,-6.8586 -3.98621,-4.60171 -5.97931,-10.93273 -5.9793,-18.99307 -10e-6,-8.08961 1.99309,-14.42063 5.9793,-18.99307 4.01549,-4.57236 9.55513,-6.85856 16.61893,-6.85861"
         style="font-size:90.04121399px;writing-mode:lr-tb"
         id="path5436" />
      <path
         d="m 546.72698,524.54929 0,26.11547 -8.13361,0 0,-67.97056 8.13361,0 0,7.47412 c 1.69998,-2.93098 3.83963,-5.09994 6.41895,-6.50688 2.60859,-1.43616 5.71548,-2.15426 9.32068,-2.15431 5.97926,5e-5 10.8301,2.37418 14.55255,7.1224 3.75167,4.74831 5.62753,10.99139 5.62758,18.72928 -5e-5,7.73793 -1.87591,13.98102 -5.62758,18.72927 -3.72245,4.74827 -8.57329,7.1224 -14.55255,7.1224 -3.6052,0 -6.71209,-0.70344 -9.32068,-2.11034 -2.57932,-1.4362 -4.71897,-3.61981 -6.41895,-6.55085 m 27.52236,-17.19048 c -4e-5,-5.94996 -1.23107,-10.61029 -3.69309,-13.98101 -2.4328,-3.39995 -5.78882,-5.09995 -10.06809,-5.09999 -4.27933,4e-5 -7.65001,1.70004 -10.11205,5.09999 -2.43277,3.37072 -3.64915,8.03105 -3.64913,13.98101 -2e-5,5.95 1.21636,10.62499 3.64913,14.02497 2.46204,3.37069 5.83272,5.05603 10.11205,5.05603 4.27927,0 7.63529,-1.68534 10.06809,-5.05603 2.46202,-3.39998 3.69305,-8.07497 3.69309,-14.02497"
         style="font-size:90.04121399px;writing-mode:lr-tb"
         id="path5438" />
      <path
         d="m 596.05619,463.52527 8.08964,0 0,68.41022 -8.08964,0 0,-68.41022"
         style="font-size:90.04121399px;writing-mode:lr-tb"
         id="path5440" />
      <path
         d="m 663.14743,505.29243 0,3.95689 -37.19476,0 c 0.35171,5.56897 2.0224,9.81896 5.01206,12.74998 3.01894,2.90172 7.21031,4.35258 12.57412,4.35258 3.10685,0 6.11115,-0.38103 9.01291,-1.14311 2.93099,-0.76206 5.8327,-1.90516 8.70516,-3.4293 l 0,7.64999 c -2.90177,1.23103 -5.87676,2.16896 -8.92499,2.81378 -3.0483,0.64483 -6.14054,0.96724 -9.2767,0.96724 -7.85518,0 -14.08362,-2.2862 -18.68531,-6.8586 -4.57242,-4.5724 -6.85862,-10.75687 -6.85861,-18.55342 -10e-6,-8.0603 2.16895,-14.44993 6.50688,-19.16893 4.36722,-4.74822 10.24393,-7.12235 17.63014,-7.1224 6.62409,5e-5 11.85597,2.1397 15.69566,6.41895 3.86891,4.25004 5.80339,10.03881 5.80344,17.36635 m -8.08964,-2.37413 c -0.0587,-4.42582 -1.30435,-7.95771 -3.73706,-10.59567 -2.40348,-2.63789 -5.5983,-3.95685 -9.58447,-3.95689 -4.51381,4e-5 -8.13362,1.27504 -10.85946,3.82499 -2.69656,2.55003 -4.25001,6.14054 -4.66034,10.77153 l 28.84133,-0.044"
         style="font-size:90.04121399px;writing-mode:lr-tb"
         id="path5442" />
    </g>
    <path
       style="fill:none;stroke:#000000;stroke-width:0.8101545;stroke-linecap:butt;stroke-linejoin:miter;stroke-miterlimit:4;stroke-opacity:1"
       d="m 158.25253,503.29941 7.9319,6.32649"
       id="path4156" />
    <path
       transform="matrix(0.16332937,0,0,0.11855355,142.28993,498.76923)"
       style="fill:#000000;fill-opacity:1;stroke:#000000;stroke-width:0;stroke-linecap:round;stroke-linejoin:miter;stroke-miterlimit:4;stroke-dashoffset:0;stroke-opacity:1"
       d="m 150.26786,90.844322 c 0,2.095724 -2.77824,3.794643 -6.20536,3.794643 -3.42712,0 -6.20536,-1.698919 -6.20536,-3.794643 0,-2.095723 2.77824,-3.794643 6.20536,-3.794643 3.42712,0 6.20536,1.69892 6.20536,3.794643 z"
       id="path4165-7" />
    <path
       transform="matrix(0.16332937,0,0,0.11855355,134.82096,492.47482)"
       style="fill:#000000;fill-opacity:1;stroke:#000000;stroke-width:0;stroke-linecap:round;stroke-linejoin:miter;stroke-miterlimit:4;stroke-dashoffset:0;stroke-opacity:1"
       d="m 150.26786,90.844322 c 0,2.095724 -2.77824,3.794643 -6.20536,3.794643 -3.42712,0 -6.20536,-1.698919 -6.20536,-3.794643 0,-2.095723 2.77824,-3.794643 6.20536,-3.794643 3.42712,0 6.20536,1.69892 6.20536,3.794643 z"
       id="path4165-7-0" />
    <g
       style="font-size:56.27576065px;font-style:normal;font-weight:normal;line-height:0%;letter-spacing:0px;word-spacing:0px;writing-mode:tb-rl;fill:#000000;fill-opacity:1;stroke:none;font-family:Sans"
       id="text4071-8">
      <path
         d="m 71.768249,483.85807 0,7.64998 c -2.286241,-1.17237 -4.660372,-2.05167 -7.122401,-2.63792 -2.462095,-0.58616 -5.012088,-0.87927 -7.649986,-0.87931 -4.015531,4e-5 -7.034488,0.61556 -9.05688,1.84655 -1.993114,1.23107 -2.989663,3.07762 -2.98965,5.53964 -1.3e-5,1.8759 0.718089,3.35606 2.154307,4.44051 1.436187,1.0552 4.323248,2.06641 8.661191,3.03362 l 2.769822,0.61551 c 5.744785,1.23106 9.818911,2.97502 12.222392,5.23189 2.432712,2.2276 3.649088,5.34915 3.649131,9.36464 -4.3e-5,4.57241 -1.817279,8.19223 -5.451714,10.85946 -3.6052,2.66724 -8.573289,4.00085 -14.904283,4.00086 -2.637946,-10e-6 -5.393111,-0.2638 -8.265502,-0.79138 -2.84311,-0.49828 -5.847411,-1.26034 -9.012915,-2.2862 l 0,-8.35344 c 2.989642,1.55346 5.935323,2.72587 8.837053,3.51724 2.901702,0.76207 5.774108,1.1431 8.617225,1.1431 3.810312,0 6.741338,-0.64482 8.793088,-1.93448 2.051687,-1.31895 3.077546,-3.1655 3.07758,-5.53965 -3.4e-5,-2.19825 -0.747446,-3.88359 -2.242237,-5.05602 -1.465545,-1.17239 -4.704329,-2.30084 -9.716361,-3.38534 l -2.813788,-0.65948 c -5.012074,-1.05515 -8.631892,-2.66721 -10.859463,-4.8362 -2.227589,-2.19824 -3.341379,-5.20254 -3.341373,-9.01291 -6e-6,-4.63099 1.641369,-8.20684 4.924129,-10.72757 3.282739,-2.52064 7.94307,-3.78098 13.981008,-3.78103 2.989623,5e-5 5.803408,0.21988 8.441364,0.65948 2.637891,0.43971 5.070643,1.09919 7.298263,1.97845"
         style="font-size:90.04121399px;writing-mode:lr-tb"
         id="path5448" />
      <path
         d="m 95.15786,524.26231 0,26.11546 -8.133605,0 0,-67.97056 8.133605,0 0,7.47412 c 1.699979,-2.93098 3.839628,-5.09994 6.41895,-6.50688 2.60859,-1.43616 5.71548,-2.15426 9.32068,-2.15431 5.97926,5e-5 10.83011,2.37418 14.55256,7.1224 3.75166,4.74831 5.62752,10.9914 5.62757,18.72928 -5e-5,7.73793 -1.87591,13.98102 -5.62757,18.72928 -3.72245,4.74826 -8.5733,7.12239 -14.55256,7.1224 -3.6052,-10e-6 -6.71209,-0.70345 -9.32068,-2.11034 -2.579322,-1.43621 -4.718971,-3.61982 -6.41895,-6.55085 m 27.52236,-17.19049 c -4e-5,-5.94996 -1.23107,-10.61029 -3.69309,-13.98101 -2.43279,-3.39995 -5.78882,-5.09995 -10.06809,-5.09999 -4.27933,4e-5 -7.65001,1.70004 -10.112048,5.09999 -2.432772,3.37072 -3.649148,8.03105 -3.649132,13.98101 -1.6e-5,5.95001 1.21636,10.62499 3.649132,14.02497 2.462038,3.37069 5.832718,5.05603 10.112048,5.05603 4.27927,0 7.6353,-1.68534 10.06809,-5.05603 2.46202,-3.39998 3.69305,-8.07496 3.69309,-14.02497"
         style="fill:#67cc00;fill-opacity:1"
         id="path5450" />
    </g>
    <path
       transform="matrix(1.0919918,0,0,1.0919918,7.1628226,445.67489)"
       style="fill:none;stroke:#000000;stroke-width:5;stroke-miterlimit:4;stroke-opacity:1"
       d="m 162.8871,55.867538 c 0,11.50652 -9.32788,20.834397 -20.8344,20.834397 -11.50652,0 -20.83439,-9.327877 -20.83439,-20.834397 0,-11.506519 9.32787,-20.834396 20.83439,-20.834396 11.50652,0 20.8344,9.327877 20.8344,20.834396 z"
       id="path5399" />
  </g>
</svg>
