<?xml version="1.0" encoding="UTF-8" standalone="no"?>
<!-- Created with Inkscape (http://www.inkscape.org/) -->

<svg
   xmlns:dc="http://purl.org/dc/elements/1.1/"
   xmlns:cc="http://creativecommons.org/ns#"
   xmlns:rdf="http://www.w3.org/1999/02/22-rdf-syntax-ns#"
   xmlns:svg="http://www.w3.org/2000/svg"
   xmlns="http://www.w3.org/2000/svg"
   xmlns:sodipodi="http://sodipodi.sourceforge.net/DTD/sodipodi-0.dtd"
   xmlns:inkscape="http://www.inkscape.org/namespaces/inkscape"
   width="710"
   height="211"
   id="svg2"
   version="1.1"
   inkscape:version="0.48.4 r9939"
   sodipodi:docname="logo-banner.svg"
   inkscape:export-filename="/home/dave/pictures/PSP/logo/banner.png"
   inkscape:export-xdpi="45.900002"
   inkscape:export-ydpi="45.900002">
  <defs
     id="defs4">
    <inkscape:path-effect
       effect="spiro"
       id="path-effect4158"
       is_visible="true" />
    <inkscape:path-effect
       effect="spiro"
       id="path-effect4069"
       is_visible="true" />
    <inkscape:path-effect
       effect="spiro"
       id="path-effect3995"
       is_visible="true" />
    <inkscape:path-effect
       effect="spiro"
       id="path-effect3223"
       is_visible="true" />
  </defs>
  <sodipodi:namedview
     id="base"
     pagecolor="#ffffff"
     bordercolor="#666666"
     borderopacity="1.0"
     inkscape:pageopacity="0.0"
     inkscape:pageshadow="2"
     inkscape:zoom="0.98994949"
     inkscape:cx="233.4826"
     inkscape:cy="89.422122"
     inkscape:document-units="px"
     inkscape:current-layer="layer1"
     showgrid="false"
     inkscape:snap-global="false"
     showguides="true"
     inkscape:guide-bbox="true"
     inkscape:window-width="1920"
     inkscape:window-height="1056"
     inkscape:window-x="0"
     inkscape:window-y="24"
     inkscape:window-maximized="1"
     fit-margin-top="0"
     fit-margin-left="0"
     fit-margin-right="0"
     fit-margin-bottom="0">
    <inkscape:grid
       type="xygrid"
       id="grid2991"
       empspacing="5"
       visible="true"
       enabled="true"
       snapvisiblegridlinesonly="true"
       originx="-38.792067px"
       originy="-474.84342px" />
    <sodipodi:guide
       orientation="0,1"
       position="-95.220639,-106.27199"
       id="guide3094" />
    <sodipodi:guide
       orientation="0,1"
       position="15.75617,45.385131"
       id="guide4055" />
    <sodipodi:guide
       orientation="0,1"
       position="0.4936475,95.870861"
       id="guide4057" />
    <sodipodi:guide
       orientation="0,1"
       position="17.776476,211.05016"
       id="guide4075" />
  </sodipodi:namedview>
  <metadata
     id="metadata7">
    <rdf:RDF>
      <cc:Work
         rdf:about="">
        <dc:format>image/svg+xml</dc:format>
        <dc:type
           rdf:resource="http://purl.org/dc/dcmitype/StillImage" />
        <dc:title></dc:title>
      </cc:Work>
    </rdf:RDF>
  </metadata>
  <g
     inkscape:label="Layer 1"
     inkscape:groupmode="layer"
     id="layer1"
     transform="translate(-38.792067,-366.51873)">
    <g
       id="g3051"
       transform="matrix(0.53479502,0,0,0.53479502,67.875254,162.67046)">
      <path
         transform="matrix(0.20225216,0,0,0.20225216,217.2141,534.56451)"
         inkscape:transform-center-y="-4.3750099"
         inkscape:transform-center-x="6.3704254"
         d="M 560,563.79077 163.53512,190.8582 462.24282,645.87118 162.46887,191.55997 348.19165,703.19475 161.26952,191.99692 223.99502,732.67114 160.00173,192.14551 96.348401,732.71128 158.73385,191.99772 -27.866744,703.313 157.53422,191.56152 -141.95394,646.06118 156.46753,190.86043 -239.76273,564.04226 155.59128,189.93223 -316.0202,461.67792 154.95269,188.82698 -366.6153,344.48664 154.58622,187.60426 -388.82043,218.78623 154.51159,186.32997 -381.43851,91.353231 154.73286,185.07283 -344.86751,-30.942403 155.23807,183.9006 -281.07896,-141.50769 156,182.87647 -193.51173,-234.38202 156.97757,182.05567 -86.886594,-304.55852 158.11808,181.48243 33.048263,-348.25395 159.36005,181.18767 l 0.46707,-544.30036 0.8094,544.29996 L 286.6153,-348.33369 161.87867,181.48125 406.57761,-304.71369 163.01954,182.05377 513.24686,-234.60427 163.99763,182.87396 600.87249,-141.78503 164.7602,183.8976 664.73056,-31.259884 165.26615,185.06952 701.37847,91.012726 165.4882,186.32652 708.84054,218.44105 165.41439,187.60085 686.71446,344.1554 165.04868,188.82381 636.19308,461.37848 164.41079,189.92946 z"
         inkscape:randomized="0"
         inkscape:rounded="-3.469447e-18"
         inkscape:flatsided="false"
         sodipodi:arg2="0.87235016"
         sodipodi:arg1="0.75599488"
         sodipodi:r2="5.4976063"
         sodipodi:r1="549.76062"
         sodipodi:cy="186.6479"
         sodipodi:cx="160"
         sodipodi:sides="27"
         id="path2987"
         style="fill:#88aa00;fill-opacity:0;stroke:#000000;stroke-width:5;stroke-linecap:round;stroke-linejoin:miter;stroke-miterlimit:4;stroke-opacity:1;stroke-dasharray:none;stroke-dashoffset:0"
         sodipodi:type="star" />
      <path
         transform="matrix(1.1186053,0,0,1.1186053,-182.42029,84.95106)"
         d="m 487.96313,435.66406 c 0,56.24045 -45.59189,101.83234 -101.83233,101.83234 -56.24045,0 -101.83234,-45.59189 -101.83234,-101.83234 0,-56.24044 45.59189,-101.83233 101.83234,-101.83233 56.24044,0 101.83233,45.59189 101.83233,101.83233 z"
         sodipodi:ry="101.83234"
         sodipodi:rx="101.83234"
         sodipodi:cy="435.66406"
         sodipodi:cx="386.1308"
         id="path3003"
         style="fill:#000000;fill-opacity:0;stroke:#000000;stroke-width:5;stroke-linecap:round;stroke-linejoin:miter;stroke-miterlimit:4;stroke-opacity:1;stroke-dasharray:none;stroke-dashoffset:0"
         sodipodi:type="arc" />
    </g>
    <path
       style="fill:none;stroke:#000000;stroke-width:1.69226933;stroke-linecap:butt;stroke-linejoin:miter;stroke-miterlimit:4;stroke-opacity:1;stroke-dasharray:none"
       d="m 201.34634,469.75275 c 0,-97.03498 0,-96.89078 0,-96.89078"
       id="path3015"
       inkscape:connector-curvature="0" />
    <path
       style="fill:none;stroke:#000000;stroke-width:1.44905853;stroke-linecap:butt;stroke-linejoin:miter;stroke-miterlimit:4;stroke-opacity:1;stroke-dasharray:none"
       d="m 201.35242,397.85487 c -15.57635,7.62369 -23.13925,3.17242 -34.7495,10.52267 -11.61023,7.35024 -19.83604,18.2892 -30.46828,34.22137 -10.63222,15.93219 -5.86388,50.87293 -29.83178,64.33012"
       id="path3049"
       inkscape:connector-curvature="0"
       sodipodi:nodetypes="cssc" />
    <path
       transform="matrix(0.04085802,0,0,0.04085802,100.11904,499.05323)"
       inkscape:transform-center-y="-0.8838154"
       inkscape:transform-center-x="1.2869308"
       d="M 560,563.79077 163.53512,190.8582 462.24282,645.87118 162.46887,191.55997 348.19165,703.19475 161.26952,191.99692 223.99502,732.67114 160.00173,192.14551 96.348401,732.71128 158.73385,191.99772 -27.866744,703.313 157.53422,191.56152 -141.95394,646.06118 156.46753,190.86043 -239.76273,564.04226 155.59128,189.93223 -316.0202,461.67792 154.95269,188.82698 -366.6153,344.48664 154.58622,187.60426 -388.82043,218.78623 154.51159,186.32997 -381.43851,91.353231 154.73286,185.07283 -344.86751,-30.942403 155.23807,183.9006 -281.07896,-141.50769 156,182.87647 -193.51173,-234.38202 156.97757,182.05567 -86.886594,-304.55852 158.11808,181.48243 33.048263,-348.25395 159.36005,181.18767 l 0.46707,-544.30036 0.8094,544.29996 L 286.6153,-348.33369 161.87867,181.48125 406.57761,-304.71369 163.01954,182.05377 513.24686,-234.60427 163.99763,182.87396 600.87249,-141.78503 164.7602,183.8976 664.73056,-31.259884 165.26615,185.06952 701.37847,91.012726 165.4882,186.32652 708.84054,218.44105 165.41439,187.60085 686.71446,344.1554 165.04868,188.82381 636.19308,461.37848 164.41079,189.92946 z"
       inkscape:randomized="0"
       inkscape:rounded="-3.469447e-18"
       inkscape:flatsided="false"
       sodipodi:arg2="0.87235016"
       sodipodi:arg1="0.75599488"
       sodipodi:r2="5.4976063"
       sodipodi:r1="549.76062"
       sodipodi:cy="186.6479"
       sodipodi:cx="160"
       sodipodi:sides="27"
       id="path2987-7"
       style="fill:#88aa00;fill-opacity:0;stroke:#000000;stroke-width:5;stroke-linecap:round;stroke-linejoin:miter;stroke-miterlimit:4;stroke-opacity:1;stroke-dasharray:none;stroke-dashoffset:0"
       sodipodi:type="star" />
    <path
       transform="matrix(0.22597536,0,0,0.22597536,19.386803,408.22444)"
       d="m 487.96313,435.66406 c 0,56.24045 -45.59189,101.83234 -101.83233,101.83234 -56.24045,0 -101.83234,-45.59189 -101.83234,-101.83234 0,-56.24044 45.59189,-101.83233 101.83234,-101.83233 56.24044,0 101.83233,45.59189 101.83233,101.83233 z"
       sodipodi:ry="101.83234"
       sodipodi:rx="101.83234"
       sodipodi:cy="435.66406"
       sodipodi:cx="386.1308"
       id="path3003-5"
       style="fill:#88aa00;fill-opacity:0;stroke:#67cc00;stroke-width:26.55156708;stroke-linecap:round;stroke-linejoin:miter;stroke-miterlimit:4;stroke-opacity:1;stroke-dasharray:none;stroke-dashoffset:0"
       sodipodi:type="arc" />
    <path
       d="m 161.84543,399.85825 c -0.71221,0.0693 -1.33602,0.10589 -1.83742,0.10589 -3.35007,0 -14.73911,-5.12531 -12.55702,-7.87716 0.94011,-1.18599 6.43521,-0.0536 13.31194,0.66221 1.53258,0.15955 6.24715,0.14683 8.97906,0 6.3611,-0.3417 11.94739,-1.07589 13.00424,0.36567 1.27051,1.74091 -7.44645,4.33744 -14.75907,5.78183"
       id="path3207"
       inkscape:connector-curvature="0" />
    <path
       style="fill:none;stroke:#000000;stroke-width:0.84613466;stroke-linecap:butt;stroke-linejoin:miter;stroke-miterlimit:4;stroke-opacity:1;stroke-dasharray:none"
       d="m 157.26721,397.1977 c -0.95276,-0.11711 -1.95227,0.24211 -2.61249,0.93894 -0.66023,0.69682 -0.96506,1.71424 -0.79677,2.6593 0.0944,0.52994 0.32928,1.03195 0.6612,1.45572 0.33191,0.42376 0.75931,0.76983 1.23428,1.02311 0.94993,0.50656 2.0715,0.63416 3.1393,0.49712 2.1356,-0.27409 3.99495,-1.52525 5.88306,-2.56011 0.94406,-0.51743 1.92184,-0.99042 2.96289,-1.26465 1.04104,-0.27423 2.15469,-0.34215 3.19128,-0.0515 1.03658,0.29065 1.98765,0.96563 2.48418,1.92084 0.24827,0.47761 0.37954,1.01804 0.35945,1.55595 -0.0201,0.5379 -0.19375,1.07176 -0.50905,1.50803 -0.29308,0.40554 -0.7065,0.72296 -1.17396,0.90138"
       id="path3221"
       inkscape:path-effect="#path-effect3223"
       inkscape:original-d="m 157.26721,397.1977 c 0.84859,1.38675 -4.12262,2.54011 -3.40926,3.59824 1.55682,2.30924 35.71693,-4.98796 19.40659,4.08451 -1.21737,0.67713 -0.20124,0.38607 -1.17396,0.90138"
       inkscape:connector-curvature="0"
       sodipodi:nodetypes="cssc" />
    <path
       style="fill:none;stroke:#000000;stroke-width:2.82044935;stroke-linecap:butt;stroke-linejoin:miter;stroke-miterlimit:4;stroke-opacity:1"
       d="m 206.93766,369.4362 c -4.5059,2.6015 -9.01182,5.203 -13.51771,7.80448"
       id="path4020"
       inkscape:connector-curvature="0" />
    <path
       style="fill:#000000;fill-opacity:1;stroke:#000000;stroke-width:2.13319182;stroke-linecap:round;stroke-linejoin:miter;stroke-miterlimit:4;stroke-opacity:1;stroke-dashoffset:0"
       d="m 208.51659,369.50744 c -0.89897,1.42966 -6.78425,3.78148 -6.58537,3.0031 -1.10227,-0.53606 2.59216,-2.92608 4.69512,-4.1584 2.10299,-1.2323 2.7892,-0.27434 1.89025,1.1553 z"
       id="path4022"
       inkscape:connector-curvature="0"
       sodipodi:nodetypes="zczz" />
    <path
       style="fill:#000000;fill-opacity:1;stroke:#000000;stroke-width:2.13319182;stroke-linecap:round;stroke-linejoin:miter;stroke-miterlimit:4;stroke-opacity:1;stroke-dashoffset:0"
       d="m 200.02713,373.85144 c 0.0564,0.83301 -5.37426,5.05163 -6.4343,4.41331 -1.10225,-0.53605 -1.18572,-2.25974 -0.13991,-2.89928 1.07609,-0.77328 6.71404,-2.24456 6.57421,-1.51403 z"
       id="path4018"
       inkscape:connector-curvature="0"
       sodipodi:nodetypes="cccc" />
    <path
       sodipodi:type="inkscape:offset"
       inkscape:radius="0"
       inkscape:original="M 453.25 367.03125 C 442.20576 367.03132 433.52531 370.19397 427.21875 376.53125 C 420.94292 382.86865 417.8125 391.61403 417.8125 402.78125 C 417.8125 413.91777 420.94292 422.66267 427.21875 429 C 433.52531 435.33735 442.20576 438.5 453.25 438.5 C 464.32492 438.5 473.00537 435.33735 479.28125 429 C 485.55699 422.66267 488.68742 413.91777 488.6875 402.78125 C 488.68742 391.61403 485.55699 382.86865 479.28125 376.53125 C 473.00537 370.19397 464.32492 367.03132 453.25 367.03125 z M 273.375 368.25 L 273.375 437.15625 L 291.15625 437.15625 L 291.15625 413.25 L 302.875 413.25 C 311.64264 413.25002 318.3551 411.31377 323.03125 407.4375 C 327.73805 403.53053 330.09368 397.97953 330.09375 390.75 C 330.09368 383.55132 327.73805 378.0013 323.03125 374.125 C 318.3551 370.21806 311.64264 368.25007 302.875 368.25 L 273.375 368.25 z M 342.59375 368.25 L 342.59375 437.15625 L 360.375 437.15625 L 360.375 407.9375 L 386.5625 407.9375 L 386.5625 437.15625 L 404.34375 437.15625 L 404.34375 368.25 L 386.5625 368.25 L 386.5625 394.53125 L 360.375 394.53125 L 360.375 368.25 L 342.59375 368.25 z M 502.09375 368.25 L 502.09375 437.15625 L 551.03125 437.15625 L 551.03125 423.71875 L 519.84375 423.71875 L 519.84375 407.9375 L 548.21875 407.9375 L 548.21875 394.53125 L 519.84375 394.53125 L 519.84375 381.6875 L 550.03125 381.6875 L 550.03125 368.25 L 502.09375 368.25 z M 566.6875 368.25 L 566.6875 437.15625 L 583.53125 437.15625 L 583.53125 389.90625 L 608.59375 437.15625 L 628.4375 437.15625 L 628.4375 368.25 L 611.59375 368.25 L 611.59375 415.53125 L 586.53125 368.25 L 566.6875 368.25 z M 645.875 368.25 L 645.875 437.15625 L 663.625 437.15625 L 663.625 368.25 L 645.875 368.25 z M 675.1875 368.25 L 698.15625 402 L 674.25 437.15625 L 692.84375 437.15625 L 708.8125 413.625 L 724.90625 437.15625 L 743.40625 437.15625 L 719.53125 402 L 742.5 368.25 L 723.84375 368.25 L 708.8125 390.46875 L 693.71875 368.25 L 675.1875 368.25 z M 453.25 379.90625 C 458.69515 379.90631 462.92211 381.87576 465.90625 385.875 C 468.89028 389.87434 470.37494 395.52103 470.375 402.78125 C 470.37494 410.01077 468.89028 415.62573 465.90625 419.625 C 462.92211 423.62431 458.69515 425.62501 453.25 425.625 C 447.83553 425.62501 443.64031 423.62431 440.65625 419.625 C 437.67214 415.62573 436.18748 410.01077 436.1875 402.78125 C 436.18748 395.52103 437.67214 389.87434 440.65625 385.875 C 443.64031 381.87576 447.83553 379.90631 453.25 379.90625 z M 291.15625 381.125 L 300.96875 381.125 C 304.41426 381.12506 307.09212 381.96381 308.96875 383.625 C 310.8453 385.2863 311.7812 387.67367 311.78125 390.75 C 311.7812 393.82642 310.8453 396.18303 308.96875 397.875 C 307.09212 399.53628 304.41426 400.37504 300.96875 400.375 L 291.15625 400.375 L 291.15625 381.125 z "
       style="font-size:94.50642395px;font-style:normal;font-weight:normal;line-height:0%;letter-spacing:0px;word-spacing:0px;writing-mode:lr-tb;fill:#67cc00;fill-opacity:1;stroke:none;font-family:Sans"
       id="path4077"
       d="m 453.25,367.03125 c -11.04424,7e-5 -19.72469,3.16272 -26.03125,9.5 -6.27583,6.3374 -9.40625,15.08278 -9.40625,26.25 0,11.13652 3.13042,19.88142 9.40625,26.21875 6.30656,6.33735 14.98701,9.5 26.03125,9.5 11.07492,0 19.75537,-3.16265 26.03125,-9.5 6.27574,-6.33733 9.40617,-15.08223 9.40625,-26.21875 -8e-5,-11.16722 -3.13051,-19.9126 -9.40625,-26.25 -6.27588,-6.33728 -14.95633,-9.49993 -26.03125,-9.5 z m -179.875,1.21875 0,68.90625 17.78125,0 0,-23.90625 11.71875,0 c 8.76764,2e-5 15.4801,-1.93623 20.15625,-5.8125 4.7068,-3.90697 7.06243,-9.45797 7.0625,-16.6875 -7e-5,-7.19868 -2.3557,-12.7487 -7.0625,-16.625 -4.67615,-3.90694 -11.38861,-5.87493 -20.15625,-5.875 l -29.5,0 z m 69.21875,0 0,68.90625 17.78125,0 0,-29.21875 26.1875,0 0,29.21875 17.78125,0 0,-68.90625 -17.78125,0 0,26.28125 -26.1875,0 0,-26.28125 -17.78125,0 z m 159.5,0 0,68.90625 48.9375,0 0,-13.4375 -31.1875,0 0,-15.78125 28.375,0 0,-13.40625 -28.375,0 0,-12.84375 30.1875,0 0,-13.4375 -47.9375,0 z m 64.59375,0 0,68.90625 16.84375,0 0,-47.25 25.0625,47.25 19.84375,0 0,-68.90625 -16.84375,0 0,47.28125 -25.0625,-47.28125 -19.84375,0 z m 79.1875,0 0,68.90625 17.75,0 0,-68.90625 -17.75,0 z m 29.3125,0 22.96875,33.75 -23.90625,35.15625 18.59375,0 15.96875,-23.53125 16.09375,23.53125 18.5,0 L 719.53125,402 742.5,368.25 l -18.65625,0 -15.03125,22.21875 -15.09375,-22.21875 -18.53125,0 z M 453.25,379.90625 c 5.44515,6e-5 9.67211,1.96951 12.65625,5.96875 2.98403,3.99934 4.46869,9.64603 4.46875,16.90625 -6e-5,7.22952 -1.48472,12.84448 -4.46875,16.84375 -2.98414,3.99931 -7.2111,6.00001 -12.65625,6 -5.41447,10e-6 -9.60969,-2.00069 -12.59375,-6 -2.98411,-3.99927 -4.46877,-9.61423 -4.46875,-16.84375 -2e-5,-7.26022 1.48464,-12.90691 4.46875,-16.90625 2.98406,-3.99924 7.17928,-5.96869 12.59375,-5.96875 z m -162.09375,1.21875 9.8125,0 c 3.44551,6e-5 6.12337,0.83881 8,2.5 1.87655,1.6613 2.81245,4.04867 2.8125,7.125 -5e-5,3.07642 -0.93595,5.43303 -2.8125,7.125 -1.87663,1.66128 -4.55449,2.50004 -8,2.5 l -9.8125,0 0,-19.25 z" />
    <text
       xml:space="preserve"
       style="font-size:40px;font-style:normal;font-weight:normal;line-height:0%;letter-spacing:0px;word-spacing:0px;writing-mode:tb-rl;fill:#000000;fill-opacity:1;stroke:none;font-family:Sans"
       x="-29.294424"
       y="508.64758"
       id="text4059"
       sodipodi:linespacing="0%"><tspan
         sodipodi:role="line"
         id="tspan4061"
         x="508.64758"
         y="-29.294424"></tspan></text>
    <path
       style="fill:none;stroke:#67cc00;stroke-width:6;stroke-linecap:butt;stroke-linejoin:miter;stroke-miterlimit:4;stroke-opacity:1;stroke-dasharray:none"
       d="m 83.455674,481.73726 0,92.78148"
       id="path4067"
       inkscape:path-effect="#path-effect4069"
       inkscape:original-d="m 83.455674,481.73726 c 7.138305,92.78148 0.341641,92.78148 0,92.78148"
       inkscape:connector-curvature="0"
       sodipodi:nodetypes="cc" />
    <text
       sodipodi:linespacing="0%"
       id="text4071"
       y="531.93549"
       x="264.05441"
       style="font-size:56.27576065px;font-style:normal;font-weight:normal;line-height:0%;letter-spacing:0px;word-spacing:0px;writing-mode:tb-rl;fill:#000000;fill-opacity:1;stroke:none;font-family:Sans"
       xml:space="preserve"><tspan
         style="font-size:90.04121399px;writing-mode:lr-tb"
         y="531.93549"
         x="264.05441"
         id="tspan4073"
         sodipodi:role="line">kes people</tspan></text>
    <path
       style="fill:none;stroke:#000000;stroke-width:2.05981898;stroke-linecap:butt;stroke-linejoin:miter;stroke-miterlimit:4;stroke-opacity:1;stroke-dasharray:none"
       d="m 190.70458,460.35378 20.16688,16.0851"
       id="path4156"
       inkscape:path-effect="#path-effect4158"
       inkscape:original-d="m 190.70458,460.35378 c 20.09875,16.03076 20.16688,16.0851 20.16688,16.0851"
       inkscape:connector-curvature="0" />
    <path
       sodipodi:type="arc"
       style="fill:#000000;fill-opacity:1;stroke:#000000;stroke-width:0;stroke-linecap:round;stroke-linejoin:miter;stroke-miterlimit:4;stroke-opacity:1;stroke-dasharray:none;stroke-dashoffset:0"
       id="path4165-7"
       sodipodi:cx="144.0625"
       sodipodi:cy="90.844322"
       sodipodi:rx="6.2053571"
       sodipodi:ry="3.7946429"
       d="m 150.26786,90.844322 c 0,2.095724 -2.77824,3.794643 -6.20536,3.794643 -3.42712,0 -6.20536,-1.698919 -6.20536,-3.794643 0,-2.095723 2.77824,-3.794643 6.20536,-3.794643 3.42712,0 6.20536,1.69892 6.20536,3.794643 z"
       transform="matrix(0.41526515,0,0,0.30142257,150.11965,448.83578)" />
    <path
       sodipodi:type="arc"
       style="fill:#000000;fill-opacity:1;stroke:#000000;stroke-width:0;stroke-linecap:round;stroke-linejoin:miter;stroke-miterlimit:4;stroke-opacity:1;stroke-dasharray:none;stroke-dashoffset:0"
       id="path4165-7-0"
       sodipodi:cx="144.0625"
       sodipodi:cy="90.844322"
       sodipodi:rx="6.2053571"
       sodipodi:ry="3.7946429"
       d="m 150.26786,90.844322 c 0,2.095724 -2.77824,3.794643 -6.20536,3.794643 -3.42712,0 -6.20536,-1.698919 -6.20536,-3.794643 0,-2.095723 2.77824,-3.794643 6.20536,-3.794643 3.42712,0 6.20536,1.69892 6.20536,3.794643 z"
       transform="matrix(0.41526515,0,0,0.30142257,131.12977,432.83224)" />
    <text
       sodipodi:linespacing="0%"
       id="text4071-8"
       y="531.6485"
       x="33.911903"
       style="font-size:56.27576065px;font-style:normal;font-weight:normal;line-height:0%;letter-spacing:0px;word-spacing:0px;writing-mode:tb-rl;fill:#000000;fill-opacity:1;stroke:none;font-family:Sans"
       xml:space="preserve"><tspan
         style="font-size:90.04121399px;writing-mode:lr-tb"
         y="531.6485"
         x="33.911903"
         id="tspan4073-6"
         sodipodi:role="line">s</tspan></text>
  </g>
</svg>
