<?xml version="1.0" encoding="UTF-8" standalone="no"?>
<!-- Created with Inkscape (http://www.inkscape.org/) -->

<svg
   xmlns:dc="http://purl.org/dc/elements/1.1/"
   xmlns:cc="http://creativecommons.org/ns#"
   xmlns:rdf="http://www.w3.org/1999/02/22-rdf-syntax-ns#"
   xmlns:svg="http://www.w3.org/2000/svg"
   xmlns="http://www.w3.org/2000/svg"
   xmlns:inkscape="http://www.inkscape.org/namespaces/inkscape"
   version="1.1"
   width="710.72339"
   height="210.79968"
   id="svg2">
  <defs
     id="defs4">
    <inkscape:path-effect
       effect="spiro"
       id="path-effect4158" />
    <inkscape:path-effect
       effect="spiro"
       id="path-effect4069" />
    <inkscape:path-effect
       effect="spiro"
       id="path-effect3995" />
    <inkscape:path-effect
       effect="spiro"
       id="path-effect3223" />
  </defs>
  <metadata
     id="metadata7">
    <rdf:RDF>
      <cc:Work
         rdf:about="">
        <dc:format>image/svg+xml</dc:format>
        <dc:type
           rdf:resource="http://purl.org/dc/dcmitype/StillImage" />
        <dc:title></dc:title>
      </cc:Work>
    </rdf:RDF>
  </metadata>
  <g
     transform="translate(-33.741303,-366.71905)"
     id="layer1">
    <g
       transform="matrix(0.53479502,0,0,0.53479502,67.875254,162.67046)"
       id="g3051">
      <path
         d="M 560,563.79077 163.53512,190.8582 462.24282,645.87118 162.46887,191.55997 348.19165,703.19475 161.26952,191.99692 223.99502,732.67114 160.00173,192.14551 96.348401,732.71128 158.73385,191.99772 -27.866744,703.313 157.53422,191.56152 -141.95394,646.06118 156.46753,190.86043 -239.76273,564.04226 155.59128,189.93223 -316.0202,461.67792 154.95269,188.82698 -366.6153,344.48664 154.58622,187.60426 -388.82043,218.78623 154.51159,186.32997 -381.43851,91.353231 154.73286,185.07283 -344.86751,-30.942403 155.23807,183.9006 -281.07896,-141.50769 156,182.87647 -193.51173,-234.38202 156.97757,182.05567 -86.886594,-304.55852 158.11808,181.48243 33.048263,-348.25395 159.36005,181.18767 l 0.46707,-544.30036 0.8094,544.29996 L 286.6153,-348.33369 161.87867,181.48125 406.57761,-304.71369 163.01954,182.05377 513.24686,-234.60427 163.99763,182.87396 600.87249,-141.78503 164.7602,183.8976 664.73056,-31.259884 165.26615,185.06952 701.37847,91.012726 165.4882,186.32652 708.84054,218.44105 165.41439,187.60085 686.71446,344.1554 165.04868,188.82381 636.19308,461.37848 164.41079,189.92946 z"
         transform="matrix(0.20225216,0,0,0.20225216,217.2141,534.56451)"
         id="path2987"
         style="fill:#88aa00;fill-opacity:0;stroke:#000000;stroke-width:5;stroke-linecap:round;stroke-linejoin:miter;stroke-miterlimit:4;stroke-opacity:1;stroke-dasharray:none;stroke-dashoffset:0" />
      <path
         d="m 487.96313,435.66406 a 101.83234,101.83234 0 1 1 -203.66467,0 101.83234,101.83234 0 1 1 203.66467,0 z"
         transform="matrix(1.1186053,0,0,1.1186053,-182.42029,84.95106)"
         id="path3003"
         style="fill:#000000;fill-opacity:0;stroke:#000000;stroke-width:5;stroke-linecap:round;stroke-linejoin:miter;stroke-miterlimit:4;stroke-opacity:1;stroke-dasharray:none;stroke-dashoffset:0" />
    </g>
    <path
       d="m 201.34634,469.75275 c 0,-97.03498 0,-96.89078 0,-96.89078"
       id="path3015"
       style="fill:none;stroke:#000000;stroke-width:1.69226933;stroke-linecap:butt;stroke-linejoin:miter;stroke-miterlimit:4;stroke-opacity:1;stroke-dasharray:none" />
    <path
       d="m 201.35242,397.85487 c -15.57635,7.62369 -23.21604,3.15132 -34.7495,10.52267 -11.53346,7.37135 -24.69996,20.2628 -31.22589,31.94853 -6.52593,11.68573 -4.87319,20.62171 -7.37514,33.28827 -2.50196,12.66656 -9.69659,26.57571 -21.69903,33.31469"
       id="path3049"
       style="fill:none;stroke:#000000;stroke-width:1.44905853;stroke-linecap:butt;stroke-linejoin:miter;stroke-miterlimit:4;stroke-opacity:1;stroke-dasharray:none" />
    <path
       d="M 560,563.79077 163.53512,190.8582 462.24282,645.87118 162.46887,191.55997 348.19165,703.19475 161.26952,191.99692 223.99502,732.67114 160.00173,192.14551 96.348401,732.71128 158.73385,191.99772 -27.866744,703.313 157.53422,191.56152 -141.95394,646.06118 156.46753,190.86043 -239.76273,564.04226 155.59128,189.93223 -316.0202,461.67792 154.95269,188.82698 -366.6153,344.48664 154.58622,187.60426 -388.82043,218.78623 154.51159,186.32997 -381.43851,91.353231 154.73286,185.07283 -344.86751,-30.942403 155.23807,183.9006 -281.07896,-141.50769 156,182.87647 -193.51173,-234.38202 156.97757,182.05567 -86.886594,-304.55852 158.11808,181.48243 33.048263,-348.25395 159.36005,181.18767 l 0.46707,-544.30036 0.8094,544.29996 L 286.6153,-348.33369 161.87867,181.48125 406.57761,-304.71369 163.01954,182.05377 513.24686,-234.60427 163.99763,182.87396 600.87249,-141.78503 164.7602,183.8976 664.73056,-31.259884 165.26615,185.06952 701.37847,91.012726 165.4882,186.32652 708.84054,218.44105 165.41439,187.60085 686.71446,344.1554 165.04868,188.82381 636.19308,461.37848 164.41079,189.92946 z"
       transform="matrix(0.04085802,0,0,0.04085802,100.11904,499.05323)"
       id="path2987-7"
       style="fill:#88aa00;fill-opacity:0;stroke:#000000;stroke-width:5;stroke-linecap:round;stroke-linejoin:miter;stroke-miterlimit:4;stroke-opacity:1;stroke-dasharray:none;stroke-dashoffset:0" />
    <path
       d="m 487.96313,435.66406 a 101.83234,101.83234 0 1 1 -203.66467,0 101.83234,101.83234 0 1 1 203.66467,0 z"
       transform="matrix(0.22597536,0,0,0.22597536,19.386803,408.22444)"
       id="path3003-5"
       style="fill:#88aa00;fill-opacity:0;stroke:#43cfce;stroke-width:26.55156708;stroke-linecap:round;stroke-linejoin:miter;stroke-miterlimit:4;stroke-opacity:1;stroke-dasharray:none;stroke-dashoffset:0" />
    <path
       d="m 161.84543,399.85825 c -0.71221,0.0693 -1.33602,0.10589 -1.83742,0.10589 -3.35007,0 -14.73911,-5.12531 -12.55702,-7.87716 0.94011,-1.18599 6.43521,-0.0536 13.31194,0.66221 1.53258,0.15955 6.24715,0.14683 8.97906,0 6.3611,-0.3417 11.94739,-1.07589 13.00424,0.36567 1.27051,1.74091 -7.44645,4.33744 -14.75907,5.78183"
       id="path3207" />
    <path
       d="m 157.26721,397.1977 c -0.95276,-0.11711 -1.95227,0.24211 -2.61249,0.93894 -0.66023,0.69682 -0.96506,1.71424 -0.79677,2.6593 0.0944,0.52994 0.32928,1.03195 0.6612,1.45572 0.33191,0.42376 0.75931,0.76983 1.23428,1.02311 0.94993,0.50656 2.0715,0.63416 3.1393,0.49712 2.1356,-0.27409 3.99495,-1.52525 5.88306,-2.56011 0.94406,-0.51743 1.92184,-0.99042 2.96289,-1.26465 1.04104,-0.27423 2.15469,-0.34215 3.19128,-0.0515 1.03658,0.29065 1.98765,0.96563 2.48418,1.92084 0.24827,0.47761 0.37954,1.01804 0.35945,1.55595 -0.0201,0.5379 -0.19375,1.07176 -0.50905,1.50803 -0.29308,0.40554 -0.7065,0.72296 -1.17396,0.90138"
       id="path3221"
       style="fill:none;stroke:#000000;stroke-width:0.84613466;stroke-linecap:butt;stroke-linejoin:miter;stroke-miterlimit:4;stroke-opacity:1;stroke-dasharray:none" />
    <path
       d="m 206.93766,369.4362 c -4.5059,2.6015 -9.01182,5.203 -13.51771,7.80448"
       id="path4020"
       style="fill:none;stroke:#000000;stroke-width:2.82044935;stroke-linecap:butt;stroke-linejoin:miter;stroke-miterlimit:4;stroke-opacity:1" />
    <path
       d="m 208.51659,369.50744 c -0.89897,1.42966 -6.78425,3.78148 -6.58537,3.0031 -1.10227,-0.53606 2.59216,-2.92608 4.69512,-4.1584 2.10299,-1.2323 2.7892,-0.27434 1.89025,1.1553 z"
       id="path4022"
       style="fill:#000000;fill-opacity:1;stroke:#000000;stroke-width:2.13319182;stroke-linecap:round;stroke-linejoin:miter;stroke-miterlimit:4;stroke-opacity:1;stroke-dashoffset:0" />
    <path
       d="m 200.02713,373.85144 c 0.0564,0.83301 -5.37426,5.05163 -6.4343,4.41331 -1.10225,-0.53605 -1.18572,-2.25974 -0.13991,-2.89928 1.07609,-0.77328 6.71404,-2.24456 6.57421,-1.51403 z"
       id="path4018"
       style="fill:#000000;fill-opacity:1;stroke:#000000;stroke-width:2.13319182;stroke-linecap:round;stroke-linejoin:miter;stroke-miterlimit:4;stroke-opacity:1;stroke-dashoffset:0" />
    <path
       d="m 453.25,367.03125 c -11.04424,7e-5 -19.72469,3.16272 -26.03125,9.5 -6.27583,6.3374 -9.40625,15.08278 -9.40625,26.25 0,11.13652 3.13042,19.88142 9.40625,26.21875 6.30656,6.33735 14.98701,9.5 26.03125,9.5 11.07492,0 19.75537,-3.16265 26.03125,-9.5 6.27574,-6.33733 9.40617,-15.08223 9.40625,-26.21875 -8e-5,-11.16722 -3.13051,-19.9126 -9.40625,-26.25 -6.27588,-6.33728 -14.95633,-9.49993 -26.03125,-9.5 z m -179.875,1.21875 0,68.90625 17.78125,0 0,-23.90625 11.71875,0 c 8.76764,2e-5 15.4801,-1.93623 20.15625,-5.8125 4.7068,-3.90697 7.06243,-9.45797 7.0625,-16.6875 -7e-5,-7.19868 -2.3557,-12.7487 -7.0625,-16.625 -4.67615,-3.90694 -11.38861,-5.87493 -20.15625,-5.875 l -29.5,0 z m 69.21875,0 0,68.90625 17.78125,0 0,-29.21875 26.1875,0 0,29.21875 17.78125,0 0,-68.90625 -17.78125,0 0,26.28125 -26.1875,0 0,-26.28125 -17.78125,0 z m 159.5,0 0,68.90625 48.9375,0 0,-13.4375 -31.1875,0 0,-15.78125 28.375,0 0,-13.40625 -28.375,0 0,-12.84375 30.1875,0 0,-13.4375 -47.9375,0 z m 64.59375,0 0,68.90625 16.84375,0 0,-47.25 25.0625,47.25 19.84375,0 0,-68.90625 -16.84375,0 0,47.28125 -25.0625,-47.28125 -19.84375,0 z m 79.1875,0 0,68.90625 17.75,0 0,-68.90625 -17.75,0 z m 29.3125,0 22.96875,33.75 -23.90625,35.15625 18.59375,0 15.96875,-23.53125 16.09375,23.53125 18.5,0 L 719.53125,402 742.5,368.25 l -18.65625,0 -15.03125,22.21875 -15.09375,-22.21875 -18.53125,0 z M 453.25,379.90625 c 5.44515,6e-5 9.67211,1.96951 12.65625,5.96875 2.98403,3.99934 4.46869,9.64603 4.46875,16.90625 -6e-5,7.22952 -1.48472,12.84448 -4.46875,16.84375 -2.98414,3.99931 -7.2111,6.00001 -12.65625,6 -5.41447,10e-6 -9.60969,-2.00069 -12.59375,-6 -2.98411,-3.99927 -4.46877,-9.61423 -4.46875,-16.84375 -2e-5,-7.26022 1.48464,-12.90691 4.46875,-16.90625 2.98406,-3.99924 7.17928,-5.96869 12.59375,-5.96875 z m -162.09375,1.21875 9.8125,0 c 3.44551,6e-5 6.12337,0.83881 8,2.5 1.87655,1.6613 2.81245,4.04867 2.8125,7.125 -5e-5,3.07642 -0.93595,5.43303 -2.8125,7.125 -1.87663,1.66128 -4.55449,2.50004 -8,2.5 l -9.8125,0 0,-19.25 z"
       id="path4077"
       style="font-size:94.50642395px;font-style:normal;font-weight:normal;line-height:0%;letter-spacing:0px;word-spacing:0px;writing-mode:lr-tb;fill:#43cfce;fill-opacity:1;stroke:none;font-family:Sans" />
    <text
       x="-29.294424"
       y="508.64758"
       id="text4059"
       xml:space="preserve"
       style="font-size:40px;font-style:normal;font-weight:normal;line-height:0%;letter-spacing:0px;word-spacing:0px;writing-mode:tb-rl;fill:#000000;fill-opacity:1;stroke:none;font-family:Sans"><tspan
         x="508.64758"
         y="-29.294424"
         id="tspan4061" /></text>
    <path
       d="m 83.455674,481.73726 0,92.78148"
       id="path4067"
       style="fill:none;stroke:#43cfce;stroke-width:6;stroke-linecap:butt;stroke-linejoin:miter;stroke-miterlimit:4;stroke-opacity:1;stroke-dasharray:none" />
    <text
       x="264.05441"
       y="531.93549"
       id="text4071"
       xml:space="preserve"
       style="font-size:56.27576065px;font-style:normal;font-weight:normal;line-height:0%;letter-spacing:0px;word-spacing:0px;writing-mode:tb-rl;fill:#000000;fill-opacity:1;stroke:none;font-family:Sans"><tspan
         x="264.05441"
         y="531.93549"
         id="tspan4073"
         style="font-size:90.04121399px;writing-mode:lr-tb">kes people</tspan></text>
    <path
       d="m 190.70458,460.35378 20.16688,16.0851"
       id="path4156"
       style="fill:none;stroke:#000000;stroke-width:2.05981898;stroke-linecap:butt;stroke-linejoin:miter;stroke-miterlimit:4;stroke-opacity:1;stroke-dasharray:none" />
    <path
       d="m 150.26786,90.844322 a 6.2053571,3.7946429 0 1 1 -12.41072,0 6.2053571,3.7946429 0 1 1 12.41072,0 z"
       transform="matrix(0.41526515,0,0,0.30142257,150.11965,448.83578)"
       id="path4165-7"
       style="fill:#000000;fill-opacity:1;stroke:#000000;stroke-width:0;stroke-linecap:round;stroke-linejoin:miter;stroke-miterlimit:4;stroke-opacity:1;stroke-dasharray:none;stroke-dashoffset:0" />
    <path
       d="m 150.26786,90.844322 a 6.2053571,3.7946429 0 1 1 -12.41072,0 6.2053571,3.7946429 0 1 1 12.41072,0 z"
       transform="matrix(0.41526515,0,0,0.30142257,131.12977,432.83224)"
       id="path4165-7-0"
       style="fill:#000000;fill-opacity:1;stroke:#000000;stroke-width:0;stroke-linecap:round;stroke-linejoin:miter;stroke-miterlimit:4;stroke-opacity:1;stroke-dasharray:none;stroke-dashoffset:0" />
    <text
       x="28.861139"
       y="531.6485"
       id="text4071-8"
       xml:space="preserve"
       style="font-size:56.27576065px;font-style:normal;font-weight:normal;line-height:0%;letter-spacing:0px;word-spacing:0px;writing-mode:tb-rl;fill:#000000;fill-opacity:1;stroke:none;font-family:Sans"><tspan
         x="28.861139"
         y="531.6485"
         id="tspan4073-6"
         style="font-size:90.04121399px;writing-mode:lr-tb">s</tspan></text>
  </g>
</svg>
